<svg width="118" height="34" viewBox="0 0 118 34" fill="none" xmlns="http://www.w3.org/2000/svg">
<path d="M30.5256 12V3.27273H31.5312V6.49432H31.6165C31.6903 6.38068 31.7926 6.2358 31.9233 6.05966C32.0568 5.88068 32.2472 5.72159 32.4943 5.58239C32.7443 5.44034 33.0824 5.36932 33.5085 5.36932C34.0597 5.36932 34.5455 5.5071 34.9659 5.78267C35.3864 6.05824 35.7145 6.44886 35.9503 6.95455C36.1861 7.46023 36.304 8.05682 36.304 8.74432C36.304 9.4375 36.1861 10.0384 35.9503 10.5469C35.7145 11.0526 35.3878 11.4446 34.9702 11.723C34.5526 11.9986 34.071 12.1364 33.5256 12.1364C33.1051 12.1364 32.7685 12.0668 32.5156 11.9276C32.2628 11.7855 32.0682 11.625 31.9318 11.446C31.7955 11.2642 31.6903 11.1136 31.6165 10.9943H31.4972V12H30.5256ZM31.5142 8.72727C31.5142 9.22159 31.5866 9.65767 31.7315 10.0355C31.8764 10.4105 32.0881 10.7045 32.3665 10.9176C32.6449 11.1278 32.9858 11.233 33.3892 11.233C33.8097 11.233 34.1605 11.1222 34.4418 10.9006C34.7259 10.6761 34.9389 10.375 35.081 9.99716C35.2259 9.61648 35.2983 9.19318 35.2983 8.72727C35.2983 8.26705 35.2273 7.85227 35.0852 7.48295C34.946 7.1108 34.7344 6.81676 34.4503 6.60085C34.169 6.3821 33.8153 6.27273 33.3892 6.27273C32.9801 6.27273 32.6364 6.37642 32.358 6.58381C32.0795 6.78835 31.8693 7.07528 31.7273 7.4446C31.5852 7.81108 31.5142 8.23864 31.5142 8.72727ZM39.7685 12.1534C39.3537 12.1534 38.9773 12.0753 38.6392 11.919C38.3011 11.7599 38.0327 11.5312 37.8338 11.233C37.6349 10.9318 37.5355 10.5682 37.5355 10.142C37.5355 9.76705 37.6094 9.46307 37.7571 9.23011C37.9048 8.99432 38.1023 8.80966 38.3494 8.67614C38.5966 8.54261 38.8693 8.44318 39.1676 8.37784C39.4688 8.30966 39.7713 8.25568 40.0753 8.21591C40.473 8.16477 40.7955 8.12642 41.0426 8.10085C41.2926 8.07244 41.4744 8.02557 41.5881 7.96023C41.7045 7.89489 41.7628 7.78125 41.7628 7.61932V7.58523C41.7628 7.16477 41.6477 6.83807 41.4176 6.60511C41.1903 6.37216 40.8452 6.25568 40.3821 6.25568C39.902 6.25568 39.5256 6.3608 39.2528 6.57102C38.9801 6.78125 38.7884 7.00568 38.6776 7.24432L37.723 6.90341C37.8935 6.50568 38.1207 6.19602 38.4048 5.97443C38.6918 5.75 39.0043 5.59375 39.3423 5.50568C39.6832 5.41477 40.0185 5.36932 40.348 5.36932C40.5582 5.36932 40.7997 5.39489 41.0724 5.44602C41.348 5.49432 41.6136 5.59517 41.8693 5.74858C42.1278 5.90199 42.3423 6.13352 42.5128 6.44318C42.6832 6.75284 42.7685 7.16761 42.7685 7.6875V12H41.7628V11.1136H41.7116C41.6435 11.2557 41.5298 11.4077 41.3707 11.5696C41.2116 11.7315 41 11.8693 40.7358 11.983C40.4716 12.0966 40.1491 12.1534 39.7685 12.1534ZM39.9219 11.25C40.3196 11.25 40.6548 11.1719 40.9276 11.0156C41.2031 10.8594 41.4105 10.6577 41.5497 10.4105C41.6918 10.1634 41.7628 9.90341 41.7628 9.63068V8.71023C41.7202 8.76136 41.6264 8.80824 41.4815 8.85085C41.3395 8.89062 41.1747 8.92614 40.9872 8.95739C40.8026 8.9858 40.6222 9.01136 40.446 9.03409C40.2727 9.05398 40.1321 9.07102 40.0241 9.08523C39.7628 9.11932 39.5185 9.17472 39.2912 9.25142C39.0668 9.32528 38.8849 9.4375 38.7457 9.58807C38.6094 9.7358 38.5412 9.9375 38.5412 10.1932C38.5412 10.5426 38.6705 10.8068 38.929 10.9858C39.1903 11.1619 39.5213 11.25 39.9219 11.25ZM47.2631 12.1364C46.6495 12.1364 46.1211 11.9915 45.6779 11.7017C45.2347 11.4119 44.8938 11.0128 44.6552 10.5043C44.4165 9.99574 44.2972 9.41477 44.2972 8.76136C44.2972 8.09659 44.4194 7.50994 44.6637 7.00142C44.9109 6.49006 45.2546 6.09091 45.695 5.80398C46.1381 5.5142 46.6552 5.36932 47.2461 5.36932C47.7063 5.36932 48.1211 5.45455 48.4904 5.625C48.8597 5.79545 49.1623 6.03409 49.3981 6.34091C49.6339 6.64773 49.7802 7.00568 49.837 7.41477H48.8313C48.7546 7.11648 48.5842 6.85227 48.32 6.62216C48.0586 6.3892 47.7063 6.27273 47.2631 6.27273C46.8711 6.27273 46.5273 6.375 46.2319 6.57955C45.9393 6.78125 45.7106 7.06676 45.5458 7.43608C45.3839 7.80256 45.3029 8.23295 45.3029 8.72727C45.3029 9.23295 45.3825 9.6733 45.5415 10.0483C45.7035 10.4233 45.9308 10.7145 46.2234 10.9219C46.5188 11.1293 46.8654 11.233 47.2631 11.233C47.5245 11.233 47.7617 11.1875 47.9748 11.0966C48.1879 11.0057 48.3683 10.875 48.516 10.7045C48.6637 10.5341 48.7688 10.3295 48.8313 10.0909H49.837C49.7802 10.4773 49.6396 10.8253 49.4151 11.1349C49.1935 11.4418 48.8995 11.6861 48.533 11.8679C48.1694 12.0469 47.7461 12.1364 47.2631 12.1364ZM52.2447 9.61364L52.2276 8.36932H52.4322L55.2958 5.45455H56.5401L53.489 8.53977H53.4038L52.2447 9.61364ZM51.3072 12V3.27273H52.3129V12H51.3072ZM55.4663 12L52.9094 8.76136L53.6254 8.0625L56.7447 12H55.4663ZM60.3093 12.1364C59.6786 12.1364 59.1346 11.9972 58.6772 11.7188C58.2227 11.4375 57.8718 11.0455 57.6246 10.5426C57.3803 10.0369 57.2582 9.44886 57.2582 8.77841C57.2582 8.10795 57.3803 7.51705 57.6246 7.00568C57.8718 6.49148 58.2156 6.09091 58.6559 5.80398C59.0991 5.5142 59.6161 5.36932 60.207 5.36932C60.5479 5.36932 60.8846 5.42614 61.217 5.53977C61.5494 5.65341 61.8519 5.83807 62.1246 6.09375C62.3974 6.34659 62.6147 6.68182 62.7766 7.09943C62.9386 7.51705 63.0195 8.03125 63.0195 8.64205V9.06818H57.9741V8.19886H61.9968C61.9968 7.82955 61.9229 7.5 61.7752 7.21023C61.6303 6.92045 61.4229 6.69176 61.1531 6.52415C60.886 6.35653 60.5707 6.27273 60.207 6.27273C59.8065 6.27273 59.4599 6.37216 59.1673 6.57102C58.8775 6.76705 58.6545 7.02273 58.4982 7.33807C58.342 7.65341 58.2638 7.99148 58.2638 8.35227V8.93182C58.2638 9.42614 58.3491 9.84517 58.5195 10.1889C58.6928 10.5298 58.9329 10.7898 59.2397 10.9688C59.5465 11.1449 59.9031 11.233 60.3093 11.233C60.5735 11.233 60.8121 11.196 61.0252 11.1222C61.2411 11.0455 61.4272 10.9318 61.5835 10.7812C61.7397 10.6278 61.8604 10.4375 61.9457 10.2102L62.9173 10.483C62.815 10.8125 62.6431 11.1023 62.4016 11.3523C62.1602 11.5994 61.8619 11.7926 61.5067 11.9318C61.1516 12.0682 60.7525 12.1364 60.3093 12.1364ZM67.021 12.1364C66.4755 12.1364 65.994 11.9986 65.5763 11.723C65.1587 11.4446 64.832 11.0526 64.5962 10.5469C64.3604 10.0384 64.2425 9.4375 64.2425 8.74432C64.2425 8.05682 64.3604 7.46023 64.5962 6.95455C64.832 6.44886 65.1602 6.05824 65.5806 5.78267C66.0011 5.5071 66.4869 5.36932 67.038 5.36932C67.4641 5.36932 67.8008 5.44034 68.0479 5.58239C68.2979 5.72159 68.4883 5.88068 68.619 6.05966C68.7525 6.2358 68.8562 6.38068 68.93 6.49432H69.0153V3.27273H70.021V12H69.0494V10.9943H68.93C68.8562 11.1136 68.7511 11.2642 68.6147 11.446C68.4783 11.625 68.2837 11.7855 68.0309 11.9276C67.7781 12.0668 67.4414 12.1364 67.021 12.1364ZM67.1573 11.233C67.5607 11.233 67.9016 11.1278 68.18 10.9176C68.4585 10.7045 68.6701 10.4105 68.815 10.0355C68.9599 9.65767 69.0323 9.22159 69.0323 8.72727C69.0323 8.23864 68.9613 7.81108 68.8192 7.4446C68.6772 7.07528 68.467 6.78835 68.1886 6.58381C67.9102 6.37642 67.5664 6.27273 67.1573 6.27273C66.7312 6.27273 66.3761 6.3821 66.092 6.60085C65.8107 6.81676 65.5991 7.1108 65.457 7.48295C65.3178 7.85227 65.2482 8.26705 65.2482 8.72727C65.2482 9.19318 65.3192 9.61648 65.4613 9.99716C65.6062 10.375 65.8192 10.6761 66.1005 10.9006C66.3846 11.1222 66.7369 11.233 67.1573 11.233ZM75.5138 12V3.27273H76.5195V6.49432H76.6048C76.6786 6.38068 76.7809 6.2358 76.9116 6.05966C77.0451 5.88068 77.2354 5.72159 77.4826 5.58239C77.7326 5.44034 78.0707 5.36932 78.4968 5.36932C79.0479 5.36932 79.5337 5.5071 79.9542 5.78267C80.3746 6.05824 80.7028 6.44886 80.9386 6.95455C81.1744 7.46023 81.2923 8.05682 81.2923 8.74432C81.2923 9.4375 81.1744 10.0384 80.9386 10.5469C80.7028 11.0526 80.3761 11.4446 79.9585 11.723C79.5408 11.9986 79.0593 12.1364 78.5138 12.1364C78.0934 12.1364 77.7567 12.0668 77.5039 11.9276C77.2511 11.7855 77.0565 11.625 76.9201 11.446C76.7837 11.2642 76.6786 11.1136 76.6048 10.9943H76.4854V12H75.5138ZM76.5025 8.72727C76.5025 9.22159 76.5749 9.65767 76.7198 10.0355C76.8647 10.4105 77.0763 10.7045 77.3548 10.9176C77.6332 11.1278 77.9741 11.233 78.3775 11.233C78.7979 11.233 79.1488 11.1222 79.43 10.9006C79.7141 10.6761 79.9272 10.375 80.0692 9.99716C80.2141 9.61648 80.2866 9.19318 80.2866 8.72727C80.2866 8.26705 80.2156 7.85227 80.0735 7.48295C79.9343 7.1108 79.7227 6.81676 79.4386 6.60085C79.1573 6.3821 78.8036 6.27273 78.3775 6.27273C77.9684 6.27273 77.6246 6.37642 77.3462 6.58381C77.0678 6.78835 76.8576 7.07528 76.7156 7.4446C76.5735 7.81108 76.5025 8.23864 76.5025 8.72727ZM83.244 14.4545C83.0735 14.4545 82.9215 14.4403 82.788 14.4119C82.6545 14.3864 82.5621 14.3608 82.511 14.3352L82.7667 13.4489C83.011 13.5114 83.2269 13.5341 83.4144 13.517C83.6019 13.5 83.7681 13.4162 83.913 13.2656C84.0607 13.1179 84.1957 12.8778 84.3178 12.5455L84.5053 12.0341L82.0849 5.45455H83.1758L84.9826 10.6705H85.0508L86.8576 5.45455H87.9485L85.1701 12.9545C85.0451 13.2926 84.8903 13.5724 84.7056 13.794C84.521 14.0185 84.3065 14.1847 84.0621 14.2926C83.8207 14.4006 83.5479 14.4545 83.244 14.4545Z" fill="white" fill-opacity="0.5"/>
<path d="M0.078125 24.0231C0.078125 20.8245 2.65902 18.2326 5.7391 18.2326C7.43846 18.2326 8.64925 18.9275 9.56265 19.8319L8.47931 20.9459C7.83143 20.3062 6.94989 19.8098 5.7391 19.8098C3.49808 19.8098 1.74562 21.6848 1.74562 24.012C1.74562 26.3393 3.49808 28.2143 5.7391 28.2143C7.19417 28.2143 8.02261 27.6076 8.55366 27.0562C8.98912 26.604 9.27589 25.9532 9.3821 25.0709H5.7391V23.4937H10.869C10.9221 23.7804 10.954 24.1113 10.954 24.4863C10.954 25.6775 10.646 27.1444 9.637 28.1812C8.64925 29.24 7.39597 29.8025 5.7391 29.8025C2.65902 29.8025 0.078125 27.2106 0.078125 24.0231Z" fill="#4285F4"/>
<path d="M15.0849 22.3588C13.0988 22.3588 11.4844 23.925 11.4844 26.0868C11.4844 28.2375 13.0988 29.8147 15.0849 29.8147C17.071 29.8147 18.6854 28.2375 18.6854 26.0868C18.6854 23.925 17.071 22.3588 15.0849 22.3588ZM15.0849 28.3368C14.0015 28.3368 13.0563 27.4103 13.0563 26.0757C13.0563 24.7301 13.9909 23.8147 15.0849 23.8147C16.1682 23.8147 17.1135 24.7301 17.1135 26.0757C17.1135 27.4103 16.1682 28.3368 15.0849 28.3368Z" fill="#EA4335"/>
<path d="M22.9443 22.3588C20.9581 22.3588 19.3438 23.925 19.3438 26.0868C19.3438 28.2375 20.9581 29.8147 22.9443 29.8147C24.9304 29.8147 26.5448 28.2375 26.5448 26.0868C26.5448 23.925 24.9304 22.3588 22.9443 22.3588ZM22.9443 28.3368C21.8609 28.3368 20.9157 27.4103 20.9157 26.0757C20.9157 24.7301 21.8503 23.8147 22.9443 23.8147C24.0382 23.8147 24.9729 24.7301 24.9729 26.0757C24.9729 27.4103 24.0276 28.3368 22.9443 28.3368Z" fill="#FBBC05"/>
<path d="M32.588 22.5781V23.1847H32.5349C32.1844 22.7435 31.5046 22.3464 30.6443 22.3464C28.8494 22.3464 27.2031 23.9788 27.2031 26.0854C27.2031 28.17 28.8494 29.8023 30.6443 29.8023C31.5046 29.8023 32.1844 29.4053 32.5349 28.9531H32.588V29.4935C32.588 30.9163 31.8551 31.6773 30.6762 31.6773C29.7097 31.6773 29.1149 30.9604 28.8706 30.3538L27.5005 30.9494C27.8935 31.942 28.945 33.1553 30.6868 33.1553C32.5349 33.1553 34.0961 32.0303 34.0961 29.2729V22.5781H32.588ZM30.7824 28.3354C29.6991 28.3354 28.7856 27.3869 28.7856 26.0854C28.7856 24.7729 29.6991 23.8134 30.7824 23.8134C31.8551 23.8134 32.6942 24.7729 32.6942 26.0854C32.7048 27.3979 31.8551 28.3354 30.7824 28.3354Z" fill="#4285F4"/>
<path d="M36.7438 29.5854H35.1719V18.6332H36.7438V29.5854Z" fill="#34A853"/>
<path d="M41.0658 28.3368C40.2586 28.3368 39.6957 27.9507 39.324 27.2118L44.1247 25.1493L43.9654 24.7301C43.668 23.8919 42.7546 22.3588 40.8959 22.3588C39.0479 22.3588 37.5078 23.8698 37.5078 26.0868C37.5078 28.1713 39.0266 29.8147 41.0658 29.8147C42.7121 29.8147 43.6574 28.7669 44.061 28.1603L42.8395 27.311C42.4253 27.9287 41.873 28.3368 41.0658 28.3368ZM40.949 23.7926C41.5756 23.7926 42.1067 24.1125 42.2766 24.5868L39.0691 25.9654C39.0266 24.5316 40.1418 23.7926 40.949 23.7926Z" fill="#EA4335"/>
<path d="M51.2974 19.825C51.7577 19.825 52.1352 19.9026 52.4298 20.058L52.0846 21.1687C51.8636 21.059 51.615 21.0041 51.3388 21.0041C51.0258 21.0041 50.768 21.1138 50.5655 21.3332C50.3721 21.5434 50.2754 21.8268 50.2754 22.1833V23.0334H52.0431V24.1851H50.2754V29.7519H49.0049V24.1851H47.7344V23.0334H49.0049V22.0599C49.0049 21.3926 49.2167 20.8533 49.6402 20.442C50.0729 20.0306 50.6253 19.825 51.2974 19.825Z" fill="white"/>
<path d="M52.4531 26.3955C52.4531 25.3626 52.78 24.508 53.4336 23.8315C54.0965 23.1551 54.9297 22.8169 55.9333 22.8169C56.9368 22.8169 57.7654 23.1551 58.4191 23.8315C59.082 24.508 59.4134 25.3626 59.4134 26.3955C59.4134 27.4376 59.082 28.2923 58.4191 28.9595C57.7654 29.636 56.9368 29.9742 55.9333 29.9742C54.9297 29.9742 54.0965 29.636 53.4336 28.9595C52.78 28.2831 52.4531 27.4285 52.4531 26.3955ZM53.7237 26.3955C53.7237 27.1177 53.9354 27.7027 54.3589 28.1506C54.7824 28.5985 55.3072 28.8224 55.9333 28.8224C56.5593 28.8224 57.0841 28.5985 57.5076 28.1506C57.9312 27.7027 58.1429 27.1177 58.1429 26.3955C58.1429 25.6825 57.9312 25.1021 57.5076 24.6542C57.0749 24.1972 56.5501 23.9686 55.9333 23.9686C55.3164 23.9686 54.7916 24.1972 54.3589 24.6542C53.9354 25.1021 53.7237 25.6825 53.7237 26.3955Z" fill="white"/>
<path d="M61.7237 29.7489H60.4531V23.0303H61.6684V24.1272H61.7237C61.8526 23.7707 62.1149 23.4691 62.5108 23.2223C62.9159 22.9663 63.3118 22.8384 63.6985 22.8384C64.0668 22.8384 64.3798 22.8932 64.6376 23.0029L64.2509 24.2232C64.0944 24.1592 63.8458 24.1272 63.5052 24.1272C63.0264 24.1272 62.6075 24.3192 62.2484 24.7031C61.8986 25.087 61.7237 25.5349 61.7237 26.0468V29.7489Z" fill="white"/>
<path d="M74.431 27.1341C74.431 27.9933 74.1134 28.6835 73.4781 29.2045C72.8337 29.7164 72.0511 29.9723 71.1304 29.9723C70.311 29.9723 69.5883 29.7347 68.9622 29.2594C68.3362 28.784 67.9034 28.135 67.6641 27.3124L68.8794 26.8187C68.9622 27.1113 69.0773 27.3763 69.2246 27.614C69.3719 27.8517 69.5422 28.0573 69.7356 28.231C69.9381 28.3955 70.1591 28.5281 70.3985 28.6286C70.6379 28.72 70.891 28.7657 71.158 28.7657C71.7381 28.7657 72.2122 28.6195 72.5805 28.327C72.9488 28.0253 73.1329 27.6277 73.1329 27.1341C73.1329 26.7228 72.981 26.3708 72.6772 26.0783C72.3917 25.795 71.8578 25.5207 71.0752 25.2557C70.2834 24.9723 69.7908 24.7803 69.5975 24.6798C68.5479 24.1496 68.0231 23.3681 68.0231 22.3352C68.0231 21.613 68.3131 20.996 68.8932 20.4841C69.4824 19.9723 70.2051 19.7163 71.0614 19.7163C71.8163 19.7163 72.47 19.9083 73.0224 20.2922C73.5748 20.667 73.9431 21.1377 74.1272 21.7044L72.9395 22.198C72.8291 21.8324 72.6081 21.5308 72.2767 21.2931C71.9544 21.0463 71.5585 20.9229 71.089 20.9229C70.5918 20.9229 70.1729 21.06 69.8323 21.3342C69.4916 21.5902 69.3213 21.9238 69.3213 22.3352C69.3213 22.6734 69.4548 22.9659 69.7218 23.2127C70.0164 23.4595 70.6563 23.752 71.6414 24.0902C72.6449 24.4284 73.3585 24.8443 73.782 25.3379C74.2147 25.8224 74.431 26.4211 74.431 27.1341Z" fill="white"/>
<path d="M78.0664 29.8656C77.514 29.8656 77.0537 29.6965 76.6854 29.3583C76.3263 29.0201 76.1422 28.5493 76.133 27.946V24.1891H74.9453V23.0374H76.133V20.9807H77.4035V23.0374H79.0607V24.1891H77.4035V27.5347C77.4035 27.9826 77.491 28.2888 77.6659 28.4534C77.8408 28.6087 78.0388 28.6864 78.2598 28.6864C78.361 28.6864 78.4577 28.6773 78.5498 28.659C78.651 28.6316 78.7431 28.5996 78.826 28.563L79.2265 29.6874C78.895 29.8062 78.5083 29.8656 78.0664 29.8656Z" fill="white"/>
<path d="M81.062 27.6981C81.062 28.0272 81.2001 28.3014 81.4763 28.5208C81.7617 28.7402 82.0931 28.8499 82.4706 28.8499C83.0046 28.8499 83.4787 28.6533 83.8931 28.2603C84.3166 27.8672 84.5283 27.4056 84.5283 26.8754C84.1324 26.5646 83.58 26.4092 82.8711 26.4092C82.3555 26.4092 81.9228 26.5326 81.5729 26.7794C81.2323 27.0263 81.062 27.3325 81.062 27.6981ZM82.7054 22.8169C83.6445 22.8169 84.3856 23.0683 84.9288 23.571C85.472 24.0646 85.7436 24.7456 85.7436 25.614V29.7548H84.5283V28.8224H84.4731C83.9483 29.5903 83.2486 29.9742 82.3739 29.9742C81.6282 29.9742 81.0021 29.7548 80.4958 29.316C79.9986 28.8773 79.75 28.3288 79.75 27.6707C79.75 26.976 80.0124 26.423 80.5372 26.0116C81.0712 25.6003 81.7801 25.3946 82.6639 25.3946C83.4189 25.3946 84.0404 25.5317 84.5283 25.806V25.518C84.5283 25.0793 84.3534 24.709 84.0035 24.4074C83.6537 24.0966 83.244 23.9412 82.7744 23.9412C82.0655 23.9412 81.5039 24.2383 81.0896 24.8324L79.971 24.1332C80.5878 23.2557 81.4993 22.8169 82.7054 22.8169Z" fill="white"/>
<path d="M95.1067 29.8656C94.5543 29.8656 94.094 29.6965 93.7257 29.3583C93.3666 29.0201 93.1825 28.5493 93.1733 27.946V24.1891H91.9856V23.0374H93.1733V20.9807H94.4438V23.0374H96.1011V24.1891H94.4438V27.5347C94.4438 27.9826 94.5313 28.2888 94.7062 28.4534C94.8812 28.6087 95.0791 28.6864 95.3001 28.6864C95.4013 28.6864 95.498 28.6773 95.5901 28.659C95.6914 28.6316 95.7834 28.5996 95.8663 28.563L96.2668 29.6874C95.9353 29.8062 95.5487 29.8656 95.1067 29.8656ZM87.1797 23.0374H88.395V24.1343H88.4502C88.8277 23.2751 89.6057 22.8454 90.7841 22.8454L91.0465 22.8729V24.1891L90.4803 24.1343C89.8911 24.1343 89.4031 24.3171 89.0164 24.6828C88.639 25.0392 88.4502 25.4963 88.4502 26.0539V29.7559H87.1797V23.0374Z" fill="white"/>
<path d="M103.259 29.7547H102.044V28.8223H101.989C101.795 29.1514 101.496 29.4256 101.091 29.645C100.695 29.8643 100.281 29.974 99.8481 29.974C99.0195 29.974 98.3796 29.7409 97.9285 29.2748C97.4866 28.7994 97.2656 28.1276 97.2656 27.2592V23.0361H98.5362V27.1769C98.5638 28.2738 99.1208 28.8223 100.207 28.8223C100.714 28.8223 101.137 28.6212 101.478 28.219C101.818 27.8077 101.989 27.3186 101.989 26.7519V23.0361H103.259V29.7547Z" fill="white"/>
<path d="M108.135 28.8224C108.743 28.8224 109.254 28.5939 109.668 28.1369C110.083 27.689 110.29 27.1085 110.29 26.3955C110.29 25.6917 110.083 25.1112 109.668 24.6542C109.254 24.1972 108.743 23.9686 108.135 23.9686C107.518 23.9686 107.003 24.1972 106.589 24.6542C106.183 25.1112 105.981 25.6917 105.981 26.3955C105.981 27.1085 106.183 27.6935 106.589 28.1506C107.003 28.5985 107.518 28.8224 108.135 28.8224ZM108.342 29.9742C107.845 29.9742 107.39 29.8691 106.975 29.6588C106.57 29.4486 106.257 29.1698 106.036 28.8224H105.981L106.036 29.7548V32.7164H104.766V23.0363H105.981V23.9686H106.036C106.257 23.6213 106.57 23.3425 106.975 23.1323C107.39 22.922 107.845 22.8169 108.342 22.8169C109.236 22.8169 109.99 23.1642 110.607 23.859C111.243 24.5628 111.56 25.4083 111.56 26.3955C111.56 27.3919 111.243 28.2374 110.607 28.9321C109.99 29.6268 109.236 29.9742 108.342 29.9742Z" fill="white"/>
<path d="M117.824 27.8901C117.824 28.4751 117.566 28.9687 117.05 29.3709C116.535 29.7731 115.886 29.9742 115.103 29.9742C114.422 29.9742 113.824 29.8005 113.308 29.4531C112.792 29.0967 112.424 28.6305 112.203 28.0546L113.336 27.5747C113.501 27.9769 113.741 28.2923 114.054 28.5208C114.376 28.7402 114.726 28.8499 115.103 28.8499C115.508 28.8499 115.844 28.763 116.111 28.5893C116.388 28.4157 116.526 28.21 116.526 27.9723C116.526 27.5427 116.194 27.2274 115.531 27.0263L114.371 26.7383C113.055 26.4092 112.396 25.7785 112.396 24.8462C112.396 24.2337 112.645 23.7447 113.142 23.3791C113.649 23.0043 114.293 22.8169 115.076 22.8169C115.674 22.8169 116.213 22.9586 116.691 23.2419C117.179 23.5253 117.52 23.9047 117.713 24.38L116.581 24.8462C116.452 24.5628 116.24 24.3434 115.946 24.188C115.66 24.0235 115.338 23.9412 114.979 23.9412C114.648 23.9412 114.348 24.0235 114.081 24.188C113.824 24.3526 113.695 24.5537 113.695 24.7913C113.695 25.1752 114.058 25.4495 114.786 25.614L115.808 25.8745C117.152 26.2036 117.824 26.8754 117.824 27.8901Z" fill="white"/>
</svg>
